<?xml version="1.0" standalone="no"?>
<!DOCTYPE svg PUBLIC "-//W3C//DTD SVG 20010904//EN"
 "http://www.w3.org/TR/2001/REC-SVG-20010904/DTD/svg10.dtd">
<svg version="1.0" xmlns="http://www.w3.org/2000/svg"
 width="700.000000pt" height="700.000000pt" viewBox="0 0 700.000000 700.000000"
 preserveAspectRatio="xMidYMid meet">
<metadata>
Created by potrace 1.11, written by Peter Selinger 2001-2013
</metadata>
<g transform="translate(0.000000,700.000000) scale(0.100000,-0.100000)"
fill="#000000" stroke="none">
<path d="M6697 6623 c-1 -1 -40 -4 -87 -8 -47 -3 -96 -8 -110 -10 -14 -2 -52
-7 -84 -10 -33 -3 -62 -8 -65 -10 -4 -2 -27 -6 -51 -10 -25 -3 -88 -15 -140
-27 -52 -11 -113 -24 -135 -28 -22 -5 -67 -16 -100 -24 -33 -9 -68 -18 -78
-21 -71 -17 -403 -124 -452 -145 -11 -5 -63 -25 -115 -46 -52 -20 -99 -40
-105 -45 -5 -5 -14 -9 -21 -9 -6 0 -42 -14 -80 -31 -38 -17 -70 -31 -71 -31
-11 3 -428 -217 -540 -285 -39 -23 -76 -43 -82 -43 -6 0 -11 -4 -11 -10 0 -5
-5 -10 -10 -10 -6 0 -16 -4 -23 -10 -7 -5 -90 -61 -185 -125 -95 -63 -179
-120 -185 -125 -7 -6 -55 -42 -107 -81 -114 -86 -254 -200 -258 -211 -2 -4 -8
-8 -12 -8 -5 0 -20 -10 -33 -22 -13 -13 -57 -52 -97 -88 -93 -82 -265 -247
-339 -324 -92 -97 -74 -90 -238 -92 -631 -8 -1007 -15 -1014 -20 -5 -3 -9 -1
-9 4 0 6 -16 4 -37 -3 -47 -16 -77 -59 -163 -236 -36 -74 -67 -136 -70 -139
-7 -7 -97 -184 -364 -714 -164 -323 -224 -452 -216 -461 5 -6 8 -14 5 -17 -3
-3 4 -13 14 -22 16 -15 37 -18 113 -16 51 0 109 3 128 5 36 3 230 13 400 20
52 2 88 1 80 -2 -8 -3 -80 -28 -160 -55 -240 -82 -557 -203 -575 -219 -5 -5
-17 -9 -26 -9 -10 0 -19 -3 -21 -7 -2 -5 -21 -17 -43 -28 -63 -31 -195 -116
-195 -126 0 -5 -6 -9 -13 -9 -32 0 -297 -275 -297 -309 0 -6 -4 -11 -10 -11
-5 0 -12 -11 -16 -25 -7 -30 12 -52 58 -66 65 -21 135 -36 156 -34 12 1 22 -1
22 -5 0 -4 44 -6 98 -6 92 2 102 4 172 40 41 21 81 43 88 49 7 5 15 7 19 4 6
-6 -48 -80 -104 -144 -36 -41 -56 -64 -123 -143 -30 -36 -65 -76 -77 -90 -11
-14 -40 -47 -63 -75 -23 -27 -53 -63 -67 -80 -14 -16 -37 -47 -51 -67 -13 -21
-29 -38 -33 -38 -5 0 -9 -4 -9 -10 0 -5 -8 -18 -17 -29 -10 -10 -34 -42 -53
-71 -19 -28 -40 -57 -46 -63 -6 -7 -17 -24 -24 -37 -7 -14 -32 -54 -55 -90
-47 -71 -86 -151 -88 -181 -1 -10 -5 -19 -10 -19 -8 0 -3 -58 7 -67 13 -13
134 -18 186 -8 14 3 50 10 80 15 30 6 64 15 75 20 11 4 58 21 105 37 47 15 88
32 91 36 3 5 9 8 13 7 7 -2 45 11 101 35 17 7 55 23 85 35 30 12 75 31 100 42
24 11 55 22 69 25 13 2 32 8 42 13 10 6 27 10 38 10 10 0 22 6 24 13 3 6 6 7
6 2 1 -6 18 -9 40 -7 77 8 86 -57 25 -193 -27 -63 -132 -321 -139 -345 -4 -14
-11 -29 -15 -35 -9 -12 -24 -67 -22 -77 1 -5 -2 -8 -7 -8 -8 0 -19 -39 -23
-80 0 -8 -5 -18 -10 -21 -5 -3 -10 -44 -11 -90 -2 -77 0 -84 21 -95 24 -12 59
-4 111 25 33 19 191 131 211 150 8 9 38 34 64 56 63 51 154 135 280 257 201
194 252 238 291 257 39 19 41 19 59 1 31 -30 24 -189 -21 -430 -32 -175 -35
-242 -12 -280 18 -29 23 -31 67 -29 26 2 61 9 77 17 74 34 117 59 142 80 14
12 29 22 32 22 19 0 279 269 352 365 34 44 37 48 60 75 37 44 59 73 129 170
39 52 75 101 81 108 14 16 113 161 187 272 32 47 60 86 65 88 4 2 7 10 7 18 0
8 5 14 10 14 6 0 10 6 10 13 0 7 7 22 15 32 8 11 29 40 47 65 27 39 32 42 38
25 4 -11 6 -24 4 -30 -2 -5 -6 -30 -9 -55 -3 -25 -7 -56 -9 -70 -2 -14 -6 -50
-10 -80 -7 -55 -14 -112 -21 -160 -4 -25 -14 -109 -21 -165 -5 -45 -13 -104
-19 -144 -3 -20 -8 -56 -10 -81 -3 -25 -7 -59 -10 -76 -8 -45 12 -82 47 -89
26 -6 152 28 168 45 3 3 12 6 20 8 15 3 125 45 165 62 11 5 106 41 210 80 105
39 199 75 210 80 11 4 47 18 80 30 64 24 117 46 150 62 12 5 27 10 35 12 8 2
26 8 40 13 14 6 97 39 185 73 88 34 171 67 185 72 14 6 30 12 35 14 36 9 163
69 177 84 18 19 23 61 44 375 8 124 14 209 18 265 2 30 7 105 11 165 4 61 9
126 10 145 2 19 6 80 10 135 l7 100 71 65 c101 91 337 330 337 341 0 5 6 9 14
9 8 0 17 8 20 18 3 9 21 33 39 52 26 28 101 119 185 225 20 26 79 105 92 125
8 12 20 28 25 34 18 19 125 186 124 192 0 4 3 10 8 13 5 3 24 31 43 61 19 30
45 69 58 85 13 17 23 35 23 40 0 6 15 37 34 71 66 118 202 400 257 534 69 166
72 173 70 183 -1 4 2 7 8 7 6 0 9 3 9 8 -3 14 14 72 20 72 4 0 7 9 8 20 1 10
8 34 16 52 12 27 36 93 42 118 1 3 5 12 8 20 6 15 86 291 93 323 9 41 13 57
37 152 14 55 29 120 33 145 4 25 8 47 9 50 8 35 25 123 29 150 2 19 5 35 6 35
1 0 4 11 5 25 2 14 6 36 8 50 3 14 12 80 21 148 16 120 19 150 31 302 4 41 8
92 11 112 6 44 -18 97 -44 100 -26 2 -123 3 -125 1z"/>
</g>
</svg>
